<?xml version="1.0" encoding="UTF-8"?>
<svg width="1024" height="1024" viewBox="0 0 1024 1024" fill="none" xmlns="http://www.w3.org/2000/svg" role="img" aria-label="Cleaning services logo without text">
  <defs>
    <linearGradient id="shine" x1="0" y1="0" x2="1" y2="1">
      <stop offset="0%" stop-color="#6EC1FF" stop-opacity="1"/>
      <stop offset="100%" stop-color="#1E88E5" stop-opacity="1"/>
    </linearGradient>
    <filter id="glow" x="-20%" y="-20%" width="140%" height="140%">
      <feGaussianBlur stdDeviation="12" result="blur"/>
      <feMerge>
        <feMergeNode in="blur"/>
        <feMergeNode in="SourceGraphic"/>
      </feMerge>
    </filter>
  </defs>

  <!-- Background is transparent by default -->

  <!-- House body -->
  <path d="M160 480 L512 210 L864 480 L800 480 L800 820 Q800 840 780 840 L244 840 Q224 840 224 820 L224 480 Z"
        fill="url(#shine)" filter="url(#glow)"/>

  <!-- Roof ridge highlight -->
  <path d="M512 210 L864 480" stroke="#B3E5FC" stroke-width="12" stroke-linecap="round" opacity="0.6"/>
  <path d="M512 210 L160 480" stroke="#B3E5FC" stroke-width="12" stroke-linecap="round" opacity="0.6"/>

  <!-- Door / negative space not included to keep it icon-like -->

  <!-- Window -->
  <rect x="450" y="540" width="124" height="124" rx="10" fill="#E3F2FD" opacity="0.95"/>
  <line x1="512" y1="540" x2="512" y2="664" stroke="#90CAF9" stroke-width="10"/>
  <line x1="450" y1="602" x2="574" y2="602" stroke="#90CAF9" stroke-width="10"/>

  <!-- Squeegee handle -->
  <rect x="640" y="640" width="220" height="26" rx="13" transform="rotate(-35 640 640)" fill="#0D47A1"/>
  <!-- Squeegee head -->
  <rect x="660" y="700" width="180" height="38" rx="8" transform="rotate(-35 660 700)" fill="#1565C0"/>
  <rect x="640" y="716" width="220" height="10" rx="5" transform="rotate(-35 640 716)" fill="#E3F2FD" opacity="0.9"/>

  <!-- Sweep arc -->
  <path d="M220 730 C350 760, 520 760, 680 700" stroke="#E3F2FD" stroke-width="18" stroke-linecap="round" opacity="0.9"/>
  <path d="M240 760 C380 790, 560 790, 720 730" stroke="#BBDEFB" stroke-width="8" stroke-linecap="round" opacity="0.9"/>

  <!-- Sparkles -->
  <g fill="#E3F2FD">
    <path d="M290 430 l14 -40 l14 40 l40 14 l-40 14 l-14 40 l-14 -40 l-40 -14 z"/>
    <path d="M745 355 l10 -28 l10 28 l28 10 l-28 10 l-10 28 l-10 -28 l-28 -10 z"/>
    <path d="M360 300 l8 -22 l8 22 l22 8 l-22 8 l-8 22 l-8 -22 l-22 -8 z"/>
  </g>
</svg>
